{"title":"Street 13 (1990) Hindi Dubbed - 1CD - HDRip - x264 - MP3 -={SPAR","uid":12048886,"size":729181940,"categoryP":"video","categoryS":"movies","magnet":"?xt=urn:btih:b3c0aed5facdc6a5dfcf3baff3566e45fe35b7f9&amp;dn=Street+13+%281990%29+Hindi+Dubbed+-+1CD+-+HDRip+-+x264+-+MP3+-%3D%7BSPAR&amp;tr=udp%3A%2F%2Ftracker.openbittorrent.com%3A80&amp;tr=udp%3A%2F%2Fopen.demonii.com%3A1337&amp;tr=udp%3A%2F%2Ftracker.coppersurfer.tk%3A6969&amp;tr=udp%3A%2F%2Fexodus.desync.com%3A6969","seeders":1,"leechers":1,"uploader":"SS132203","files":2,"time":1434958879,"description":"Street 13 (1990) Hindi Dubbed - 1CD - HDRip - x264 - MP3 -={SPARROW}=-\n &lt;a href=&quot;\nhttp://imgsparrow.co/image/f4&quot; rel=&quot;nofollow&quot; target=&quot;_NEW&quot;&gt;\nhttp://imgsparrow.co/image/f4&lt;/a&gt;\n &lt;a href=&quot;\nhttp://imgsparrow.co/image/QS&quot; rel=&quot;nofollow&quot; target=&quot;_NEW&quot;&gt;\nhttp://imgsparrow.co/image/QS&lt;/a&gt;\n\nInfo : - \n\nFormat                      : Matroska\nFormat version              : Version 2\nFile size                   : 695 MiB\nDuration                    : 1h 28mn\nOverall bit rate mode       : Variable\nOverall bit rate            : 1 094 Kbps\nEncoded date                : UTC 2015-06-22 00:21:30\nWriting application         : mkvmerge v7.7.0 ('Six Voices') 32bit built on Feb 28 2015 23:23:00\nWriting library             : libebml v1.3.1 + libmatroska v1.4.2\nDURATION                    : 01:28:51.330000000\n\nVideo\nID                          : 1\nFormat                      : AVC\nFormat/Info                 : Advanced Video Codec\nFormat profile              : &lt;a class=&quot;__cf_email__&quot; href=&quot;/cdn-cgi/l/email-protection&quot; data-cfemail=&quot;f2ba9b959ab2bec6dcc3&quot;&gt;[email&amp;#160;protected]&lt;/a&gt;&lt;script data-cfhash='f9e31' type=&quot;text/javascript&quot;&gt;\n/* &lt;![CDATA[ */!function(){try{var t=&quot;currentScript&quot;in document?document.currentScript:function(){for(var t=document.getElementsByTagName(&quot;script&quot;),e=t.length;e--;)if(t[e].getAttribute(&quot;data-cfhash&quot;))return t[e]}();if(t&amp;&amp;t.previousSibling){var e,r,n,i,c=t.previousSibling,a=c.getAttribute(&quot;data-cfemail&quot;);if(a){for(e=&quot;&quot;,r=parseInt(a.substr(0,2),16),n=2;a.length-n;n+=2)i=parseInt(a.substr(n,2),16)^r,e+=String.fromCharCode(i);e=document.createTextNode(e),c.parentNode.replaceChild(e,c)}t.parentNode.removeChild(t);}}catch(u){}}()/* ]]&gt; */&lt;/script&gt;\nFormat settings, CABAC      : Yes\nFormat settings, ReFrames   : 4 frames\nCodec ID                    : V_MPEG4/ISO/AVC\nDuration                    : 1h 28mn\nBit rate                    : 1 007 Kbps\nWidth                       : 640 pixels\nHeight                      : 272 pixels\nDisplay aspect ratio        : 2.35:1\nFrame rate mode             : Constant\nFrame rate                  : 25.000 fps\nColor space                 : YUV\nChroma subsampling          : 4:2:0\nBit depth                   : 8 bits\nScan type                   : Progressive\nBits/(Pixel*Frame)          : 0.231\nStream size                 : 627 MiB (90%)\nWriting library             : x264 core 146 r2538 121396c\nDefault                     : Yes\nForced                      : No\n\nAudio\nID                          : 2\nFormat                      : MPEG Audio\nFormat version              : Version 1\nFormat profile              : Layer 3\nMode                        : Joint stereo\nMode extension              : MS Stereo\nCodec ID                    : A_MPEG/L3\nCodec ID/Hint               : MP3\nDuration                    : 1h 28mn\nBit rate mode               : Variable\nBit rate                    : 85.2 Kbps\nNominal bit rate            : 128 Kbps\nChannel(s)                  : 2 channels\nSampling rate               : 44.1 KHz\nCompression mode            : Lossy\nStream size                 : 54.1 MiB (8%)\nWriting library             : LAME3.99r\nEncoding settings           : -m j -V 4 -q 2 -lowpass 17 --abr 128\nLanguage                    : Hindi\nDefault                     : Yes\nForced                      : No\n\nScreens : - \n &lt;a href=&quot;\nhttp://imgsparrow.co/image/fH&quot; rel=&quot;nofollow&quot; target=&quot;_NEW&quot;&gt;\nhttp://imgsparrow.co/image/fH&lt;/a&gt; &lt;a href=&quot;\nhttp://imgsparrow.co/image/fT&quot; rel=&quot;nofollow&quot; target=&quot;_NEW&quot;&gt;\nhttp://imgsparrow.co/image/fT&lt;/a&gt; &lt;a href=&quot;\nhttp://imgsparrow.co/image/fb&quot; rel=&quot;nofollow&quot; target=&quot;_NEW&quot;&gt;\nhttp://imgsparrow.co/image/fb&lt;/a&gt; &lt;a href=&quot;\nhttp://imgsparrow.co/image/fh&quot; rel=&quot;nofollow&quot; target=&quot;_NEW&quot;&gt;\nhttp://imgsparrow.co/image/fh&lt;/a&gt; &lt;a href=&quot;\nhttp://imgsparrow.co/image/fj&quot; rel=&quot;nofollow&quot; target=&quot;_NEW&quot;&gt;\nhttp://imgsparrow.co/image/fj&lt;/a&gt; &lt;a href=&quot;\nhttp://imgsparrow.co/image/fr&quot; rel=&quot;nofollow&quot; target=&quot;_NEW&quot;&gt;\nhttp://imgsparrow.co/image/fr&lt;/a&gt; &lt;a href=&quot;\nhttp://imgsparrow.co/image/fD&quot; rel=&quot;nofollow&quot; target=&quot;_NEW&quot;&gt;\nhttp://imgsparrow.co/image/fD&lt;/a&gt; &lt;a href=&quot;\nhttp://imgsparrow.co/image/fG&quot; rel=&quot;nofollow&quot; target=&quot;_NEW&quot;&gt;\nhttp://imgsparrow.co/image/fG&lt;/a&gt; &lt;a href=&quot;\nhttp://imgsparrow.co/image/fe&quot; rel=&quot;nofollow&quot; target=&quot;_NEW&quot;&gt;\nhttp://imgsparrow.co/image/fe&lt;/a&gt; &lt;a href=&quot;\nhttp://imgsparrow.co/image/fg&quot; rel=&quot;nofollow&quot; target=&quot;_NEW&quot;&gt;\nhttp://imgsparrow.co/image/fg&lt;/a&gt;\n &lt;a href=&quot;\nhttp://imgsparrow.co/image/N2&quot; rel=&quot;nofollow&quot; target=&quot;_NEW&quot;&gt;\nhttp://imgsparrow.co/image/N2&lt;/a&gt;","torrent":{"xt":"urn:btih:b3c0aed5facdc6a5dfcf3baff3566e45fe35b7f9","amp;dn":"Street+13+%281990%29+Hindi+Dubbed+-+1CD+-+HDRip+-+x264+-+MP3+-%3D%7BSPAR","amp;tr":["udp%3A%2F%2Ftracker.openbittorrent.com%3A80","udp%3A%2F%2Fopen.demonii.com%3A1337","udp%3A%2F%2Ftracker.coppersurfer.tk%3A6969","udp%3A%2F%2Fexodus.desync.com%3A6969"],"infoHash":"b3c0aed5facdc6a5dfcf3baff3566e45fe35b7f9","infoHashBuffer":{"type":"Buffer","data":[179,192,174,213,250,205,198,165,223,207,59,175,243,86,110,69,254,53,183,249]},"announce":[],"urlList":[]}}